PathFileType	4	(X/Y/Z)	C:\Users\alexw\Dropbox\ABI\Level_8_Lab\OpenSim Tools\ProcessingTrialDataFromVicon\Output\AB08\_12Mar_ss_12ms_01\_12Mar_ss_12ms_01.trc
DataRate	CameraRate	NumFrames	NumMarkers	Units	OrigDataRate	OrigDataStartFrame	OrigNumFrames
200.000000	200.000000	6	42	mm	200.000000	4957	6093
Frame#	Time	LASI			RASI			LPSI			RPSI			LTH1			LTH2			LTH3			LTH4			LMFC			LLFC			LTB1			LTB2			LTB3			LTB4			LMMAL			LLMAL			LCAL			LToe			LMT1			LMT5			RTH1			RTH2			RTH3			RTH4			RMFC			RLFC			RTB1			RTB2			RTB3			RTB4			RMMAL			RLMAL			RCAL			RToe			RMT1			RMT5			C7			T10			LACR1			RACR1			CLAV			RBack			
		X1	Y1	Z1	X2	Y2	Z2	X3	Y3	Z3	X4	Y4	Z4	X5	Y5	Z5	X6	Y6	Z6	X7	Y7	Z7	X8	Y8	Z8	X9	Y9	Z9	X10	Y10	Z10	X11	Y11	Z11	X12	Y12	Z12	X13	Y13	Z13	X14	Y14	Z14	X15	Y15	Z15	X16	Y16	Z16	X17	Y17	Z17	X18	Y18	Z18	X19	Y19	Z19	X20	Y20	Z20	X21	Y21	Z21	X22	Y22	Z22	X23	Y23	Z23	X24	Y24	Z24	X25	Y25	Z25	X26	Y26	Z26	X27	Y27	Z27	X28	Y28	Z28	X29	Y29	Z29	X30	Y30	Z30	X31	Y31	Z31	X32	Y32	Z32	X33	Y33	Z33	X34	Y34	Z34	X35	Y35	Z35	X36	Y36	Z36	X37	Y37	Z37	X38	Y38	Z38	X39	Y39	Z39	X40	Y40	Z40	X41	Y41	Z41	X42	Y42	Z42	

4957	24.775	405.64026	957.96167	-897.03992	662.93597	963.07941	-882.24438	465.10434	984.68036	-672.52979	586.49170	986.31036	-664.12775	399.25064	721.13647	-1002.16350	383.63324	684.28607	-1000.87150	428.13919	636.16028	-1009.38870	415.65250	675.46588	-1007.88490	485.92813	524.70923	-980.88861	353.01398	533.34296	-974.25391	321.15274	439.49350	-986.80707	318.82199	356.66724	-1002.97630	340.01190	368.55722	-1051.32680	334.37762	404.28253	-1032.63170	422.89963	149.54166	-1094.94030	333.47766	138.91557	-1082.45310	376.73260	49.43000	-1035.72840	411.76910	157.85686	-1314.86790	434.16290	119.64453	-1233.53470	316.98611	107.26120	-1227.11150	642.56152	671.74744	-847.00812	627.28876	613.27997	-820.62262	665.21289	599.26068	-774.61584	677.32935	650.10187	-801.25372	528.59271	498.59656	-727.33472	652.39764	515.57617	-690.91443	656.86865	399.37143	-677.76575	644.22504	361.78232	-682.31635	632.33313	312.73862	-677.23236	659.47742	322.88605	-631.49536	537.22815	127.82402	-600.83582	620.06519	117.87757	-558.86108	565.16412	65.06016	-486.75980	598.15668	35.73997	-788.80408	554.98511	38.35939	-699.05865	674.00140	43.29191	-663.21997	494.52344	1487.13120	-745.50183	514.49976	1236.65650	-673.57092	325.47134	1438.45610	-796.41852	649.67908	1469.44060	-812.00775	490.26114	1412.34730	-895.86938	634.07306	1392.24800	-699.59961
4958	24.78	405.23065	956.63129	-897.22498	662.27032	961.56824	-882.37482	464.28873	983.04694	-672.63416	585.79315	984.60693	-664.17059	399.41068	718.82416	-1000.61980	384.03342	682.00659	-999.61371	428.46793	633.88666	-1008.30740	416.05441	673.20435	-1006.62910	487.26501	523.12256	-979.67352	353.77795	531.57605	-973.21753	322.02014	438.53952	-987.37732	319.60840	355.91791	-1005.37380	340.54361	368.87186	-1053.43130	335.09845	404.22076	-1034.05620	423.45486	151.11182	-1102.66000	334.18549	139.55359	-1089.30620	378.25748	49.39755	-1045.10520	409.92484	163.85252	-1322.29270	433.28412	124.04654	-1242.06700	316.23227	111.02590	-1234.65190	642.26648	671.02600	-846.01978	626.20416	612.29816	-818.57318	664.39063	598.37512	-772.70471	676.69769	649.26508	-799.81586	528.09344	497.95953	-724.41333	651.98615	515.07465	-688.31378	656.57050	398.95166	-674.33362	643.84186	361.17856	-678.61926	632.15338	312.18729	-673.05219	659.31439	322.85794	-627.54663	537.03198	127.95048	-595.14294	620.03931	118.28529	-553.16772	565.08508	65.40110	-481.19189	598.19714	35.56347	-782.83069	554.64081	38.71172	-693.25458	674.05328	43.29702	-657.17731	493.89975	1485.71330	-745.54315	513.96295	1235.25920	-673.50818	324.81259	1436.92880	-796.29529	648.93799	1468.04350	-812.29681	489.43030	1410.82670	-895.99518	633.55664	1390.76730	-699.74878
4959	24.785	404.36050	954.95966	-897.87756	661.57043	959.96442	-882.43481	463.39191	981.36389	-672.78314	585.04608	982.78503	-664.24445	399.60803	716.61841	-999.19672	384.20932	679.69440	-998.24109	428.89426	632.04150	-1007.63340	416.31360	671.25500	-1005.51790	488.37915	521.91162	-978.76221	354.33585	529.93024	-972.41827	323.01086	437.52982	-987.89331	320.41534	355.19470	-1007.29900	341.04187	369.23834	-1055.42470	335.63516	404.03708	-1035.09230	424.18924	152.67874	-1109.73130	334.95740	140.45222	-1095.83030	380.00415	49.41137	-1053.76350	408.05914	169.42752	-1329.02820	432.53842	128.24313	-1249.81050	315.61478	114.46365	-1241.33120	641.18231	669.72003	-844.52502	625.13068	611.18768	-816.72919	663.58398	597.50378	-770.88593	675.82837	648.21191	-798.34619	527.70380	497.29657	-721.67761	651.65356	514.59338	-685.87335	656.30957	398.56027	-670.90924	643.69000	360.74594	-674.90741	631.74518	311.79919	-669.05292	659.14581	322.71365	-623.55652	536.82886	128.19127	-589.54907	619.97626	118.80906	-547.51178	565.14844	66.05452	-474.96808	598.17621	35.40272	-776.79688	554.61462	38.47835	-687.10004	674.07782	43.30593	-651.08618	493.21997	1484.21810	-745.56641	513.42993	1233.83620	-673.64117	324.12012	1435.50440	-796.20227	648.17517	1466.62620	-812.51990	488.65079	1409.31930	-896.16785	632.99011	1389.28420	-699.97876
4960	24.79	403.59125	953.39856	-898.27588	660.78314	958.48578	-882.67249	462.47107	979.77832	-672.83832	584.37170	981.07721	-663.50739	399.37668	714.82849	-997.90088	384.32758	677.86719	-997.32983	429.21490	630.34894	-1007.25830	416.28952	669.42261	-1004.58950	489.27060	520.99237	-977.98120	355.07501	528.53839	-971.90796	323.77997	436.30710	-987.99078	321.23135	354.45221	-1009.13140	341.43427	369.42093	-1057.07590	336.12619	403.95856	-1036.12520	424.93042	154.00606	-1116.13780	336.71408	141.20833	-1101.48330	381.89532	49.37905	-1061.56400	406.22430	174.50774	-1334.92690	431.77957	132.03009	-1256.73610	315.10110	117.51714	-1247.22770	640.32190	668.56781	-843.13855	624.11957	610.05988	-815.08978	662.89526	596.63336	-769.28790	674.91418	647.09894	-797.00604	527.31744	496.64703	-719.10773	651.31409	514.06500	-683.52448	656.06793	398.07501	-667.69580	643.42157	360.14243	-671.35437	630.72229	310.52069	-664.02313	658.89703	322.69604	-619.69269	536.76434	128.42500	-584.02722	619.90924	119.30849	-541.89343	565.09497	66.64179	-469.09995	598.20978	35.17528	-770.73761	554.54333	38.48725	-681.22241	674.09448	43.31510	-644.95654	492.52600	1482.72230	-745.62109	512.76770	1232.37730	-673.70416	323.39407	1433.96030	-796.16290	647.42151	1465.17810	-812.75568	487.80972	1407.77370	-896.29944	632.31549	1387.77590	-700.07965
4961	24.795	402.92740	951.82373	-898.75269	659.89673	956.82855	-882.82397	461.35831	978.14813	-673.05048	583.64215	979.34515	-663.57294	398.97110	713.23602	-997.16644	384.41669	676.15869	-996.98236	429.34604	629.14313	-1007.11310	416.22809	668.11029	-1004.30330	490.05627	520.40839	-977.62317	355.61673	527.13965	-971.60046	324.42944	435.09488	-988.15674	322.16364	353.50986	-1010.50770	341.95383	369.23306	-1057.99410	336.66364	403.56680	-1036.80420	425.93625	155.22226	-1121.73130	337.87164	141.47485	-1106.12130	383.99329	49.28537	-1068.46570	404.42648	179.06259	-1340.02610	431.20880	135.39267	-1262.83840	314.53696	120.18016	-1252.28490	639.44330	667.16089	-841.94519	623.18518	608.93738	-813.52338	662.15942	595.58337	-767.75726	674.13995	645.94623	-795.77686	526.97821	496.00952	-716.63782	650.99719	513.49695	-681.35834	655.74292	397.57480	-664.44830	643.12280	359.72681	-667.80048	630.31934	310.11902	-660.14478	658.71918	322.63101	-615.90741	536.54510	128.64513	-578.60376	619.80591	119.88451	-536.28223	564.97748	67.13432	-463.54367	598.31732	35.08500	-764.74280	554.46893	38.53680	-675.34625	674.17029	43.34003	-638.93646	491.89929	1481.22750	-745.66333	512.13568	1230.99880	-673.82544	322.70721	1432.47490	-796.24371	646.64862	1463.70740	-812.92566	486.98328	1406.31620	-896.47937	631.63184	1386.17910	-700.24554
4962	24.8	402.35370	950.34393	-899.27466	659.14734	955.27448	-883.02014	460.32993	976.48608	-673.21594	582.59479	977.51056	-664.56592	398.38861	712.00574	-996.87177	383.79971	674.53131	-996.47925	429.27344	628.19293	-1007.17860	416.00748	667.14063	-1004.22520	490.41315	519.99780	-977.71863	356.02524	525.86780	-971.47754	325.19586	433.78384	-988.31262	323.01425	352.57034	-1011.90120	342.42847	369.24393	-1059.69490	337.11475	403.04272	-1037.49260	426.98746	156.20911	-1126.71140	338.72168	141.67964	-1110.40250	386.21310	49.09056	-1074.55750	402.56631	182.97092	-1344.36350	430.70947	138.26720	-1268.12300	314.18893	122.22766	-1256.45370	638.78119	665.93414	-840.94543	622.25403	607.73456	-811.90234	661.69153	594.77008	-766.54254	673.42780	644.66321	-794.66016	526.64734	495.41397	-714.27716	650.71204	512.94135	-679.28577	655.46875	397.04819	-661.36658	642.97693	359.32224	-664.31946	629.88464	309.16791	-655.96094	658.51630	322.47977	-612.20520	536.46948	128.88806	-573.03699	619.71454	120.55769	-530.71906	564.96417	68.00349	-457.35730	598.41138	35.04453	-758.73468	554.45825	38.42301	-669.36627	674.22253	43.37981	-632.78577	491.17313	1479.74950	-745.71790	511.44778	1229.53030	-673.93243	321.90430	1430.97570	-796.23285	645.88605	1462.24230	-813.18097	486.09909	1404.79760	-896.64301	631.02454	1384.63370	-700.42987
